<svg width="512" height="512" viewBox="0 0 512 512" fill="none" xmlns="http://www.w3.org/2000/svg">
  <path d="M64 164C64 133.072 89.0721 108 120 108H328C358.928 108 384 133.072 384 164V332C384 362.928 358.928 388 328 388H160L91.3137 456.686C81.2338 466.766 64 459.627 64 445.373V164Z" fill="#00AC47"/>
  <path d="M151 112C151 81.0721 176.072 56 207 56H392C422.928 56 448 81.0721 448 112V247C448 277.928 422.928 303 392 303H207C176.072 303 151 277.928 151 247V112Z" fill="#5BB974"/>
  <path d="M151 143H329C359.928 143 385 168.072 385 199V303H207C176.072 303 151 277.928 151 247V143Z" fill="#00832D"/>
</svg>
