<svg width="512" height="512" viewBox="0 0 512 512" fill="none" xmlns="http://www.w3.org/2000/svg">
  <circle cx="256" cy="256" r="256" fill="#7B79DD"/>
  <path d="M280 164L418 302V348C418 381.137 391.137 408 358 408H316C282.863 408 256 381.137 256 348V229L280 164Z" fill="#5B55C7"/>
  <path d="M93 145L267 116V393L93 362V145Z" fill="#302B86"/>
  <path d="M279 164C279 142.461 296.461 125 318 125C339.539 125 357 142.461 357 164C357 185.539 339.539 203 318 203C296.461 203 279 185.539 279 164Z" fill="#302B86"/>
  <path d="M351 186C351 162.252 370.252 143 394 143C417.748 143 437 162.252 437 186C437 209.748 417.748 229 394 229C370.252 229 351 209.748 351 186Z" fill="#302B86"/>
  <path d="M280 227H340V328C340 353.405 319.405 374 294 374C286.471 374 279.365 372.194 273.09 368.991C277.534 360.665 280 351.176 280 341V227Z" fill="#302B86"/>
  <path d="M353 246H419V318C419 342.301 399.301 362 375 362C367.152 362 359.784 359.945 353.405 356.344C361.67 346.146 366 333.319 366 320V246H353Z" fill="#302B86"/>
  <path d="M146 209H214V233H192V320H168V233H146V209Z" fill="white"/>
</svg>
